<?xml version="1.0" encoding="UTF-8" standalone="no"?>
<!-- Created with Inkscape (http://www.inkscape.org/) -->

<svg
   width="100"
   height="50"
   viewBox="0 0 26.458333 13.229166"
   version="1.1"
   id="svg1"
   xmlns:inkscape="http://www.inkscape.org/namespaces/inkscape"
   xmlns:sodipodi="http://sodipodi.sourceforge.net/DTD/sodipodi-0.dtd"
   xmlns="http://www.w3.org/2000/svg"
   xmlns:svg="http://www.w3.org/2000/svg">
  <sodipodi:namedview
     id="namedview1"
     pagecolor="#ffffff"
     bordercolor="#000000"
     borderopacity="0.21960784"
     inkscape:showpageshadow="false"
     inkscape:pageopacity="0.0"
     inkscape:pagecheckerboard="false"
     inkscape:deskcolor="#d1d1d1"
     inkscape:document-units="mm"
     shape-rendering="auto"
     borderlayer="true"
     showborder="false" />
  <defs
     id="defs1" />
  <g
     inkscape:label="Capa 1"
     inkscape:groupmode="layer"
     id="layer1">
    <path
       style="font-style:italic;font-weight:bold;font-size:3.69042px;font-family:'Noto Serif Display';-inkscape-font-specification:'Noto Serif Display Bold Italic';fill:#672178;stroke-width:0.4613"
       d="m 0.54757177,7.6221261 0.007381,-0.036904 h 0.12547427 q 0.1291647,0 0.23249646,-0.036904 0.107022,-0.036905 0.1365454,-0.1845214 L 1.4960097,5.275019 q 0.00738,-0.040595 0.014762,-0.073808 0.00738,-0.033214 0.00738,-0.051666 0,-0.081189 -0.08488,-0.1033318 -0.081189,-0.022143 -0.2103539,-0.022143 H 1.0937539 l 0.00738,-0.036904 H 2.034811 L 2.9094405,7.024278 3.2784825,5.2639477 q 0.00738,-0.025833 0.011071,-0.051666 0.00369,-0.029523 0.00369,-0.047975 0,-0.08488 -0.077499,-0.1107126 -0.073808,-0.029523 -0.2177348,-0.029523 h -0.095951 l 0.00738,-0.036904 h 0.9299858 l -0.00738,0.036904 H 3.6955 q -0.1254743,0 -0.2324965,0.036904 -0.1070222,0.033214 -0.140236,0.184521 l -0.4982066,2.37663 H 2.6142069 L 1.5439851,5.2344244 1.0937539,7.3379638 q -0.00738,0.040595 -0.011071,0.070118 -0.00369,0.029523 -0.00369,0.047975 0,0.077499 0.099641,0.1033318 0.1033317,0.025833 0.273091,0.025833 h 0.033214 l -0.00738,0.036904 z m 3.89708083,0.036904 q -0.3579707,0 -0.5793959,-0.1919018 -0.2177348,-0.1919019 -0.2177348,-0.5830864 0,-0.2066635 0.073808,-0.4280887 Q 3.7951387,6.2308378 3.9427555,6.038936 4.0903723,5.8470341 4.3191783,5.7289407 4.5479844,5.6071568 4.8579796,5.6071568 q 0.2140444,0 0.3874941,0.081189 0.1734498,0.077499 0.2767815,0.2472581 0.1070222,0.1697593 0.1070222,0.4465408 0,0.1992827 -0.073808,0.4207079 Q 5.485351,7.0242781 5.3414247,7.2198703 5.1974983,7.4154626 4.9723827,7.5372464 4.7509575,7.6590303 4.4446526,7.6590301 Z m 0.00738,-0.036904 q 0.1291647,0 0.228806,-0.095951 0.099641,-0.095951 0.1734497,-0.254639 0.073808,-0.158688 0.1180935,-0.3505899 0.047975,-0.1955922 0.070118,-0.3948749 0.025833,-0.2029731 0.025833,-0.3801133 0,-0.2029731 -0.022143,-0.3099952 Q 5.027739,5.7289407 4.9797635,5.6883461 4.931788,5.644061 4.843218,5.644061 q -0.1254743,0 -0.2288061,0.099641 -0.099641,0.095951 -0.1771401,0.2583294 -0.073808,0.158688 -0.1254743,0.3542803 -0.051666,0.1955922 -0.077499,0.3948749 -0.022143,0.1955923 -0.022143,0.3616612 0,0.273091 0.055356,0.3911845 0.059047,0.1180934 0.1845211,0.1180938 z m 4.225526,0.033214 q -0.2140444,0 -0.3210665,-0.1033318 -0.1070222,-0.1033317 -0.1070222,-0.2952336 0,-0.092261 0.018452,-0.1919018 0.018452,-0.1033318 0.047975,-0.228806 L 8.4192301,6.4042875 q 0.018452,-0.073808 0.044285,-0.2029731 0.025833,-0.1291647 0.025833,-0.228806 0,-0.051666 -0.00738,-0.1070222 -0.00738,-0.055356 -0.040595,-0.092261 -0.029523,-0.040595 -0.099641,-0.040595 -0.08857,0 -0.1697593,0.070118 -0.0775,0.066428 -0.1439272,0.1697602 Q 7.9653084,6.0758402 7.917333,6.1865528 7.8730479,6.2972654 7.8545958,6.382145 L 7.732812,6.9135655 Q 7.6922174,7.0907056 7.6553132,7.2899883 7.6220994,7.489271 7.6110281,7.6221261 H 7.0427035 q 0.011071,-0.099641 0.036904,-0.2435677 0.025833,-0.1476168 0.059047,-0.298924 0.033214,-0.1513072 0.059047,-0.2620198 L 7.293652,6.407978 Q 7.323175,6.2788133 7.341628,6.153339 7.36008,6.0241743 7.36008,5.9651276 q 0,-0.08488 -0.029523,-0.1513073 -0.025833,-0.070118 -0.1180934,-0.070118 -0.08488,0 -0.1660689,0.066427 -0.077499,0.062737 -0.1439264,0.1623785 -0.062737,0.099641 -0.1107126,0.2140444 -0.044285,0.1107126 -0.066428,0.2103539 L 6.441165,7.6221261 H 5.887602 L 6.2308111,5.9946509 q 0.00738,-0.047975 0.014762,-0.095951 0.011071,-0.051666 0.011071,-0.081189 0,-0.081189 -0.051666,-0.1070222 -0.047975,-0.029523 -0.1439263,-0.029523 h -0.066428 l 0.00369,-0.036904 H 6.854492 L 6.780684,6.1016738 H 6.791755 Q 6.9356813,5.8138203 7.1017502,5.7067982 7.2678191,5.5960856 7.4744826,5.5960856 q 0.2398773,0 0.3321378,0.1254742 0.095951,0.1217839 0.095951,0.2952336 v 0.099641 h 0.00738 Q 8.0391168,5.8470341 8.1941145,5.7215598 8.3491121,5.5960856 8.6000607,5.5960856 q 0.2398773,0 0.3358282,0.1180934 0.099641,0.114403 0.099641,0.2878528 0,0.099641 -0.022143,0.2214252 -0.018452,0.1180934 -0.040595,0.2140443 L 8.8510092,6.9763026 q -0.022142,0.099641 -0.036904,0.1882114 -0.014762,0.08857 -0.014762,0.1660689 0,0.2066635 0.1476168,0.2066635 0.08488,0 0.1623785,-0.055356 0.081189,-0.059047 0.1328551,-0.1070221 l 0.022143,0.029523 q -0.08857,0.092261 -0.2324964,0.1734498 -0.1439264,0.077499 -0.3542803,0.077499 z m 1.7197314,0.00369 q -0.162379,0 -0.243568,-0.040595 -0.08119,-0.040595 -0.132855,-0.092261 L 9.6702778,7.6331974 H 9.4636143 L 9.9765827,5.2159723 q 0.018452,-0.073808 0.025833,-0.1254743 0.01107,-0.055356 0.01107,-0.092261 0,-0.08488 -0.051666,-0.114403 Q 9.9101537,4.854311 9.8178933,4.854311 h -0.08488 l 0.00738,-0.036904 H 10.633477 L 10.48217,5.5185868 Q 10.46003,5.6219185 10.41943,5.784297 10.37884,5.942985 10.33455,6.1201252 h 0.01476 q 0.09226,-0.2251156 0.254639,-0.369042 0.166069,-0.1439264 0.413327,-0.1439264 0.136546,0 0.254639,0.066428 0.118093,0.066427 0.191902,0.2177348 0.0775,0.1513072 0.0775,0.4096366 0,0.1070222 -0.02583,0.2767815 -0.02583,0.1697593 -0.09595,0.3579707 -0.07012,0.184521 -0.199283,0.3505899 -0.125474,0.1660689 -0.328447,0.2694006 -0.199283,0.1033318 -0.494516,0.1033318 z m -0.129165,-0.047976 q 0.136545,0 0.247258,-0.099641 0.110713,-0.099641 0.195592,-0.2620198 0.08857,-0.1660689 0.147617,-0.3579707 0.05905,-0.1955923 0.08857,-0.3838037 0.02952,-0.1919018 0.02952,-0.3395186 0,-0.2398773 -0.05536,-0.3395187 -0.05167,-0.099641 -0.143926,-0.099641 -0.08857,0 -0.166069,0.062737 -0.0775,0.062737 -0.140236,0.1660689 -0.06274,0.099641 -0.107022,0.2140444 -0.04429,0.1107126 -0.06643,0.2103539 l -0.243568,1.1255781 q 0.02952,0.040595 0.08488,0.073808 0.05905,0.029523 0.129165,0.029523 z m 1.871041,-1.6127135 q 0.01107,-0.051666 0.01845,-0.099641 0.0074,-0.051666 0.0074,-0.08857 0,-0.070118 -0.05536,-0.099641 -0.05167,-0.029523 -0.140236,-0.029523 H 11.8956 l 0.0074,-0.036904 h 0.826654 l -0.09595,0.579396 h 0.01107 q 0.107022,-0.3210666 0.254639,-0.4686834 0.147617,-0.1476168 0.391184,-0.1476168 0.199283,0 0.295234,0.08488 0.09595,0.081189 0.09595,0.228806 0,0.1808306 -0.118093,0.2694007 -0.114403,0.08857 -0.321067,0.08857 0.0074,-0.066428 0.01107,-0.1217839 0.0037,-0.059047 0.0037,-0.1070222 0,-0.1808306 -0.04798,-0.2435677 -0.04797,-0.066428 -0.140236,-0.066428 -0.09595,0 -0.184521,0.099641 -0.08488,0.095951 -0.158688,0.2657102 -0.07012,0.1697593 -0.118093,0.3801133 l -0.25833,1.1366493 H 11.79598 Z m 2.417222,1.660689 q -0.402256,0 -0.619991,-0.1882114 -0.217734,-0.1882114 -0.217734,-0.5757055 0,-0.1476168 0.04059,-0.3210666 0.04059,-0.1734497 0.129165,-0.343209 0.08857,-0.1734497 0.232496,-0.3136857 0.143927,-0.140236 0.35059,-0.2251156 0.206664,-0.08488 0.487136,-0.08488 0.273091,0 0.424398,0.1107126 0.151307,0.1070222 0.151307,0.324757 0,0.1919018 -0.143926,0.343209 -0.143927,0.1476168 -0.391185,0.2361869 -0.247258,0.08488 -0.564634,0.08488 h -0.13654 q -0.0037,0.040595 -0.01107,0.114403 -0.0037,0.073808 -0.0037,0.1107126 0,0.3616611 0.09226,0.5240396 0.09595,0.1623785 0.265711,0.1623785 0.217734,0 0.346899,-0.1513072 0.132855,-0.1513073 0.202973,-0.3874941 0.0369,0.011071 0.05905,0.044285 0.02214,0.033214 0.02214,0.1033318 0,0.09226 -0.0775,0.1919018 -0.0775,0.099641 -0.236187,0.1697593 -0.154998,0.070118 -0.402256,0.070118 z m -0.18821,-0.9890318 q 0.17714,0 0.321066,-0.095951 0.147617,-0.095951 0.232497,-0.2583293 0.08857,-0.1660689 0.08857,-0.369042 0,-0.1660689 -0.04798,-0.2288061 -0.04429,-0.062737 -0.136545,-0.062737 -0.121784,0 -0.225116,0.1328551 -0.09964,0.1328551 -0.17345,0.3616612 -0.07381,0.228806 -0.121784,0.5203492 z m 1.922702,0.9890325 q -0.302614,0 -0.501897,-0.1070222 -0.195592,-0.1070222 -0.195592,-0.298924 0,-0.1734497 0.110713,-0.2435677 0.110712,-0.070118 0.284162,-0.070118 -0.0037,0.036904 -0.0074,0.070118 0,0.033214 0,0.062737 0,0.2804719 0.103332,0.4170175 0.103332,0.1328551 0.284162,0.1328551 0.188212,0 0.276782,-0.1107126 0.09226,-0.1107126 0.09226,-0.2694006 0,-0.1623785 -0.09226,-0.2583294 Q 16.5529,6.8877325 16.324094,6.795472 16.087907,6.6958307 15.951362,6.5703564 15.818507,6.4448822 15.818507,6.2160761 q 0,-0.2694006 0.210353,-0.43916 0.210354,-0.1697593 0.623681,-0.1697593 0.25833,0 0.405947,0.051666 0.147616,0.047975 0.210354,0.1254743 0.06274,0.077499 0.06274,0.1697593 0,0.1476168 -0.118094,0.2140444 -0.118093,0.066427 -0.313685,0.066427 0.0037,-0.047975 0.0037,-0.08857 0.0037,-0.044285 0.0037,-0.081189 0,-0.2066635 -0.06643,-0.3136857 -0.06274,-0.1070222 -0.225116,-0.1070222 -0.154997,0 -0.243567,0.1033318 -0.08488,0.099641 -0.08488,0.2509485 0,0.1439264 0.08857,0.2324965 0.09226,0.08857 0.317376,0.184521 0.26202,0.114403 0.376423,0.2361869 0.118093,0.1180934 0.118093,0.3247569 0,0.184521 -0.09226,0.3432091 -0.09226,0.1549976 -0.291543,0.2472581 -0.195593,0.092261 -0.512969,0.092261 z m 1.498311,-0.00738 q -0.103331,0 -0.173449,-0.055356 -0.06643,-0.055356 -0.06643,-0.1808306 0,-0.1623785 0.08857,-0.2620198 0.08857,-0.099641 0.228806,-0.099641 0.103332,0 0.169759,0.055356 0.07012,0.051666 0.07012,0.1808306 0,0.1586881 -0.08488,0.2620198 -0.08119,0.099641 -0.232497,0.099641 z m 1.450335,0.00738 q -0.302615,0 -0.501897,-0.1070222 -0.195592,-0.1070222 -0.195592,-0.298924 0,-0.1734497 0.110712,-0.2435677 0.110713,-0.070118 0.284162,-0.070118 -0.0037,0.036904 -0.0074,0.070118 0,0.033214 0,0.062737 0,0.2804719 0.103331,0.4170175 0.103332,0.1328551 0.284163,0.1328551 0.188211,0 0.276781,-0.1107126 0.09226,-0.1107126 0.09226,-0.2694006 0,-0.1623785 -0.09226,-0.2583294 Q 19.501546,6.8877325 19.27274,6.795472 19.036553,6.6958307 18.900007,6.5703564 18.767152,6.4448822 18.767152,6.2160761 q 0,-0.2694006 0.210354,-0.43916 0.210354,-0.1697593 0.623681,-0.1697593 0.258329,0 0.405946,0.051666 0.147617,0.047975 0.210354,0.1254743 0.06274,0.077499 0.06274,0.1697593 0,0.1476168 -0.118093,0.2140444 -0.118094,0.066427 -0.313686,0.066427 0.0037,-0.047975 0.0037,-0.08857 0.0037,-0.044285 0.0037,-0.081189 0,-0.2066635 -0.06643,-0.3136857 -0.06274,-0.1070222 -0.225115,-0.1070222 -0.154998,0 -0.243568,0.1033318 -0.08488,0.099641 -0.08488,0.2509485 0,0.1439264 0.08857,0.2324965 0.09226,0.08857 0.317376,0.184521 0.262019,0.114403 0.376422,0.2361869 0.118094,0.1180934 0.118094,0.3247569 0,0.184521 -0.09226,0.3432091 -0.09226,0.1549976 -0.291543,0.2472581 -0.195592,0.092261 -0.512968,0.092261 z m 1.620094,-1.660689 q 0.01107,-0.051666 0.01845,-0.099641 0.0074,-0.051666 0.0074,-0.08857 0,-0.070118 -0.05536,-0.099641 -0.05166,-0.029523 -0.140236,-0.029523 h -0.07381 l 0.0074,-0.036904 h 0.826654 l -0.09595,0.579396 h 0.01107 q 0.107022,-0.3210666 0.254639,-0.4686834 0.147617,-0.1476168 0.391185,-0.1476168 0.199282,0 0.295233,0.08488 0.09595,0.081189 0.09595,0.228806 0,0.1808306 -0.118093,0.2694007 -0.114403,0.08857 -0.321067,0.08857 0.0074,-0.066428 0.01107,-0.1217839 0.0037,-0.059047 0.0037,-0.1070222 0,-0.1808306 -0.04798,-0.2435677 -0.04798,-0.066428 -0.140236,-0.066428 -0.09595,0 -0.184521,0.099641 -0.08488,0.095951 -0.158688,0.2657102 -0.07012,0.1697593 -0.118094,0.3801133 l -0.258329,1.1366493 h -0.553563 z m 4.458025,1.6569986 q -0.214045,0 -0.321067,-0.1033318 -0.107022,-0.1033317 -0.107022,-0.2952336 0,-0.092261 0.01845,-0.1919018 0.01845,-0.1033318 0.04798,-0.228806 l 0.103331,-0.4317792 q 0.01845,-0.073808 0.04428,-0.2029731 0.02583,-0.1291647 0.02583,-0.228806 0,-0.051666 -0.0074,-0.1070222 -0.0074,-0.055356 -0.04059,-0.092261 -0.02952,-0.040595 -0.09964,-0.040595 -0.08857,0 -0.169759,0.070118 -0.0775,0.066428 -0.143926,0.1697593 -0.06274,0.1033318 -0.110713,0.2140444 -0.04428,0.1107126 -0.06274,0.1955922 l -0.121784,0.5314205 q -0.04059,0.1771401 -0.0775,0.3764228 -0.03321,0.1992827 -0.04428,0.3321378 h -0.568324 q 0.01107,-0.099641 0.0369,-0.2435677 0.02583,-0.1476168 0.05905,-0.298924 0.03321,-0.1513072 0.05905,-0.2620198 l 0.09595,-0.4096366 q 0.02952,-0.1291647 0.04798,-0.254639 0.01845,-0.1291647 0.01845,-0.1882114 0,-0.08488 -0.02952,-0.1513073 -0.02583,-0.070118 -0.118093,-0.070118 -0.08488,0 -0.166069,0.066427 -0.0775,0.062737 -0.143926,0.1623785 -0.06274,0.099641 -0.110713,0.2140444 -0.04429,0.1107126 -0.06643,0.2103539 l -0.28415,1.2252209 h -0.553563 l 0.343209,-1.6274752 q 0.0074,-0.047975 0.01476,-0.095951 0.01107,-0.051666 0.01107,-0.081189 0,-0.081189 -0.05167,-0.1070222 -0.04798,-0.029523 -0.143926,-0.029523 H 22.6347 l 0.0037,-0.036904 h 0.856177 l -0.07381,0.4576121 h 0.01107 q 0.143927,-0.2878528 0.309995,-0.3948749 0.166069,-0.1107126 0.372733,-0.1107126 0.239877,0 0.332138,0.1254742 0.09595,0.1217839 0.09595,0.2952336 v 0.099641 h 0.0074 q 0.129165,-0.2694007 0.284163,-0.394875 0.154997,-0.1254742 0.405946,-0.1254742 0.239877,0 0.335828,0.1180934 0.09964,0.114403 0.09964,0.2878528 0,0.099641 -0.02214,0.2214252 -0.01845,0.1180934 -0.0406,0.2140443 l -0.121784,0.5388013 q -0.02214,0.099641 -0.0369,0.1882114 -0.01476,0.08857 -0.01476,0.1660689 0,0.2066635 0.147616,0.2066635 0.08488,0 0.162379,-0.055356 0.08119,-0.059047 0.132855,-0.1070221 l 0.02214,0.029523 q -0.08857,0.092261 -0.232496,0.1734498 -0.143926,0.077499 -0.35428,0.077499 z"
       id="text1"
       aria-label="Nombres.srm" />
  </g>
</svg>
